<mxfile host="app.diagrams.net" modified="2022-04-15T10:33:14.855Z" agent="5.0 (Windows NT 10.0; Win64; x64) AppleWebKit/537.36 (KHTML, like Gecko) Chrome/100.0.4896.75 Safari/537.36" etag="IZharueU-taN8cDtJ3P5" version="17.4.3" type="github">
  <diagram id="qr5SRCUiec8R9foPtyOw" name="第 1 页">
    <mxGraphModel dx="782" dy="1549" grid="1" gridSize="10" guides="1" tooltips="1" connect="1" arrows="1" fold="1" page="1" pageScale="1" pageWidth="827" pageHeight="1169" math="0" shadow="0">
      <root>
        <mxCell id="0" />
        <mxCell id="1" parent="0" />
        <mxCell id="wBb50mCMs4URznQqPQpe-3" value="" style="edgeStyle=orthogonalEdgeStyle;rounded=0;orthogonalLoop=1;jettySize=auto;html=1;" edge="1" parent="1" source="wBb50mCMs4URznQqPQpe-1" target="wBb50mCMs4URznQqPQpe-2">
          <mxGeometry relative="1" as="geometry" />
        </mxCell>
        <mxCell id="wBb50mCMs4URznQqPQpe-14" value="1" style="edgeLabel;html=1;align=center;verticalAlign=middle;resizable=0;points=[];" vertex="1" connectable="0" parent="wBb50mCMs4URznQqPQpe-3">
          <mxGeometry x="-0.2133" relative="1" as="geometry">
            <mxPoint as="offset" />
          </mxGeometry>
        </mxCell>
        <mxCell id="wBb50mCMs4URznQqPQpe-1" value="bgsave" style="rounded=1;whiteSpace=wrap;html=1;" vertex="1" parent="1">
          <mxGeometry x="320" y="-10" width="120" height="60" as="geometry" />
        </mxCell>
        <mxCell id="wBb50mCMs4URznQqPQpe-5" value="" style="edgeStyle=orthogonalEdgeStyle;rounded=0;orthogonalLoop=1;jettySize=auto;html=1;" edge="1" parent="1" source="wBb50mCMs4URznQqPQpe-2" target="wBb50mCMs4URznQqPQpe-4">
          <mxGeometry relative="1" as="geometry" />
        </mxCell>
        <mxCell id="wBb50mCMs4URznQqPQpe-15" value="2" style="edgeLabel;html=1;align=center;verticalAlign=middle;resizable=0;points=[];" vertex="1" connectable="0" parent="wBb50mCMs4URznQqPQpe-5">
          <mxGeometry x="-0.2417" y="1" relative="1" as="geometry">
            <mxPoint as="offset" />
          </mxGeometry>
        </mxCell>
        <mxCell id="wBb50mCMs4URznQqPQpe-2" value="父进程" style="rounded=1;whiteSpace=wrap;html=1;" vertex="1" parent="1">
          <mxGeometry x="320" y="120" width="120" height="60" as="geometry" />
        </mxCell>
        <mxCell id="wBb50mCMs4URznQqPQpe-7" value="" style="edgeStyle=orthogonalEdgeStyle;rounded=0;orthogonalLoop=1;jettySize=auto;html=1;" edge="1" parent="1" source="wBb50mCMs4URznQqPQpe-4" target="wBb50mCMs4URznQqPQpe-6">
          <mxGeometry relative="1" as="geometry" />
        </mxCell>
        <mxCell id="wBb50mCMs4URznQqPQpe-18" value="" style="edgeStyle=orthogonalEdgeStyle;rounded=0;orthogonalLoop=1;jettySize=auto;html=1;" edge="1" parent="1" source="wBb50mCMs4URznQqPQpe-4" target="wBb50mCMs4URznQqPQpe-17">
          <mxGeometry relative="1" as="geometry" />
        </mxCell>
        <mxCell id="wBb50mCMs4URznQqPQpe-19" value="3" style="edgeLabel;html=1;align=center;verticalAlign=middle;resizable=0;points=[];" vertex="1" connectable="0" parent="wBb50mCMs4URznQqPQpe-18">
          <mxGeometry x="-0.2333" y="1" relative="1" as="geometry">
            <mxPoint as="offset" />
          </mxGeometry>
        </mxCell>
        <mxCell id="wBb50mCMs4URznQqPQpe-4" value="fork" style="whiteSpace=wrap;html=1;rounded=1;" vertex="1" parent="1">
          <mxGeometry x="320" y="260" width="120" height="60" as="geometry" />
        </mxCell>
        <mxCell id="wBb50mCMs4URznQqPQpe-9" value="" style="edgeStyle=orthogonalEdgeStyle;rounded=0;orthogonalLoop=1;jettySize=auto;html=1;" edge="1" parent="1" source="wBb50mCMs4URznQqPQpe-6" target="wBb50mCMs4URznQqPQpe-8">
          <mxGeometry relative="1" as="geometry" />
        </mxCell>
        <mxCell id="wBb50mCMs4URznQqPQpe-21" value="4" style="edgeLabel;html=1;align=center;verticalAlign=middle;resizable=0;points=[];" vertex="1" connectable="0" parent="wBb50mCMs4URznQqPQpe-9">
          <mxGeometry x="-0.2333" y="2" relative="1" as="geometry">
            <mxPoint as="offset" />
          </mxGeometry>
        </mxCell>
        <mxCell id="wBb50mCMs4URznQqPQpe-12" style="edgeStyle=orthogonalEdgeStyle;rounded=0;orthogonalLoop=1;jettySize=auto;html=1;entryX=1;entryY=0.5;entryDx=0;entryDy=0;exitX=0.5;exitY=0;exitDx=0;exitDy=0;" edge="1" parent="1" source="wBb50mCMs4URznQqPQpe-6" target="wBb50mCMs4URznQqPQpe-2">
          <mxGeometry relative="1" as="geometry" />
        </mxCell>
        <mxCell id="wBb50mCMs4URznQqPQpe-13" value="信号通知父进程" style="edgeLabel;html=1;align=center;verticalAlign=middle;resizable=0;points=[];" vertex="1" connectable="0" parent="wBb50mCMs4URznQqPQpe-12">
          <mxGeometry x="0.2667" y="3" relative="1" as="geometry">
            <mxPoint x="8" y="-3" as="offset" />
          </mxGeometry>
        </mxCell>
        <mxCell id="wBb50mCMs4URznQqPQpe-20" value="5" style="edgeLabel;html=1;align=center;verticalAlign=middle;resizable=0;points=[];" vertex="1" connectable="0" parent="wBb50mCMs4URznQqPQpe-12">
          <mxGeometry x="-0.6827" y="-2" relative="1" as="geometry">
            <mxPoint as="offset" />
          </mxGeometry>
        </mxCell>
        <mxCell id="wBb50mCMs4URznQqPQpe-6" value="子进程" style="whiteSpace=wrap;html=1;rounded=1;" vertex="1" parent="1">
          <mxGeometry x="520" y="260" width="120" height="60" as="geometry" />
        </mxCell>
        <mxCell id="wBb50mCMs4URznQqPQpe-8" value="生成RDB文件" style="whiteSpace=wrap;html=1;rounded=1;" vertex="1" parent="1">
          <mxGeometry x="520" y="390" width="120" height="60" as="geometry" />
        </mxCell>
        <mxCell id="wBb50mCMs4URznQqPQpe-11" style="edgeStyle=orthogonalEdgeStyle;rounded=0;orthogonalLoop=1;jettySize=auto;html=1;entryX=0;entryY=0.5;entryDx=0;entryDy=0;" edge="1" parent="1" source="wBb50mCMs4URznQqPQpe-10" target="wBb50mCMs4URznQqPQpe-2">
          <mxGeometry relative="1" as="geometry" />
        </mxCell>
        <mxCell id="wBb50mCMs4URznQqPQpe-10" value="其他进程请求执行，不阻塞" style="rounded=1;whiteSpace=wrap;html=1;" vertex="1" parent="1">
          <mxGeometry x="90" y="120" width="120" height="60" as="geometry" />
        </mxCell>
        <mxCell id="wBb50mCMs4URznQqPQpe-17" value="响应其他命令" style="whiteSpace=wrap;html=1;rounded=1;" vertex="1" parent="1">
          <mxGeometry x="320" y="390" width="120" height="60" as="geometry" />
        </mxCell>
        <mxCell id="wBb50mCMs4URznQqPQpe-22" value="&lt;b&gt;&lt;font style=&quot;font-size: 20px&quot;&gt;RDB异步写&lt;/font&gt;&lt;/b&gt;" style="text;html=1;strokeColor=none;fillColor=none;align=center;verticalAlign=middle;whiteSpace=wrap;rounded=0;" vertex="1" parent="1">
          <mxGeometry x="40" y="-70" width="130" height="30" as="geometry" />
        </mxCell>
        <mxCell id="wBb50mCMs4URznQqPQpe-25" value="" style="edgeStyle=orthogonalEdgeStyle;rounded=0;orthogonalLoop=1;jettySize=auto;html=1;fontSize=20;" edge="1" parent="1" source="wBb50mCMs4URznQqPQpe-23" target="wBb50mCMs4URznQqPQpe-24">
          <mxGeometry relative="1" as="geometry" />
        </mxCell>
        <mxCell id="wBb50mCMs4URznQqPQpe-26" value="&lt;font style=&quot;font-size: 15px&quot;&gt;发起命令&lt;/font&gt;" style="edgeLabel;html=1;align=center;verticalAlign=middle;resizable=0;points=[];fontSize=20;" vertex="1" connectable="0" parent="wBb50mCMs4URznQqPQpe-25">
          <mxGeometry x="-0.229" y="1" relative="1" as="geometry">
            <mxPoint x="-1" y="11" as="offset" />
          </mxGeometry>
        </mxCell>
        <mxCell id="wBb50mCMs4URznQqPQpe-23" value="&lt;font style=&quot;font-size: 18px&quot;&gt;客户端&lt;/font&gt;" style="rounded=1;whiteSpace=wrap;html=1;fontSize=20;" vertex="1" parent="1">
          <mxGeometry x="310" y="540" width="120" height="60" as="geometry" />
        </mxCell>
        <mxCell id="wBb50mCMs4URznQqPQpe-28" value="" style="edgeStyle=orthogonalEdgeStyle;rounded=0;orthogonalLoop=1;jettySize=auto;html=1;fontSize=15;" edge="1" parent="1" source="wBb50mCMs4URznQqPQpe-24" target="wBb50mCMs4URznQqPQpe-27">
          <mxGeometry relative="1" as="geometry" />
        </mxCell>
        <mxCell id="wBb50mCMs4URznQqPQpe-30" value="" style="edgeStyle=orthogonalEdgeStyle;rounded=0;orthogonalLoop=1;jettySize=auto;html=1;fontSize=15;" edge="1" parent="1" source="wBb50mCMs4URznQqPQpe-24" target="wBb50mCMs4URznQqPQpe-29">
          <mxGeometry relative="1" as="geometry" />
        </mxCell>
        <mxCell id="wBb50mCMs4URznQqPQpe-24" value="&lt;font style=&quot;font-size: 15px&quot;&gt;服务器&lt;/font&gt;" style="whiteSpace=wrap;html=1;fontSize=20;rounded=1;" vertex="1" parent="1">
          <mxGeometry x="310" y="700" width="120" height="60" as="geometry" />
        </mxCell>
        <mxCell id="wBb50mCMs4URznQqPQpe-27" value="&lt;font style=&quot;font-size: 15px&quot;&gt;现有AOF文件&lt;/font&gt;" style="whiteSpace=wrap;html=1;fontSize=20;rounded=1;" vertex="1" parent="1">
          <mxGeometry x="180" y="830" width="120" height="60" as="geometry" />
        </mxCell>
        <mxCell id="wBb50mCMs4URznQqPQpe-29" value="&lt;font style=&quot;font-size: 15px&quot;&gt;AOF重写缓存&lt;/font&gt;" style="whiteSpace=wrap;html=1;fontSize=20;rounded=1;" vertex="1" parent="1">
          <mxGeometry x="440" y="830" width="120" height="60" as="geometry" />
        </mxCell>
        <mxCell id="wBb50mCMs4URznQqPQpe-33" value="" style="edgeStyle=orthogonalEdgeStyle;rounded=0;orthogonalLoop=1;jettySize=auto;html=1;fontSize=15;" edge="1" parent="1" source="wBb50mCMs4URznQqPQpe-31" target="wBb50mCMs4URznQqPQpe-32">
          <mxGeometry relative="1" as="geometry" />
        </mxCell>
        <mxCell id="wBb50mCMs4URznQqPQpe-31" value="客户端" style="ellipse;whiteSpace=wrap;html=1;fontSize=15;" vertex="1" parent="1">
          <mxGeometry x="50" y="970" width="120" height="80" as="geometry" />
        </mxCell>
        <mxCell id="wBb50mCMs4URznQqPQpe-35" value="" style="edgeStyle=orthogonalEdgeStyle;rounded=0;orthogonalLoop=1;jettySize=auto;html=1;fontSize=15;" edge="1" parent="1" source="wBb50mCMs4URznQqPQpe-32" target="wBb50mCMs4URznQqPQpe-34">
          <mxGeometry relative="1" as="geometry" />
        </mxCell>
        <mxCell id="wBb50mCMs4URznQqPQpe-43" value="" style="edgeStyle=orthogonalEdgeStyle;rounded=0;orthogonalLoop=1;jettySize=auto;html=1;fontSize=15;" edge="1" parent="1" source="wBb50mCMs4URznQqPQpe-32" target="wBb50mCMs4URznQqPQpe-42">
          <mxGeometry relative="1" as="geometry" />
        </mxCell>
        <mxCell id="wBb50mCMs4URznQqPQpe-32" value="服务器" style="whiteSpace=wrap;html=1;fontSize=15;" vertex="1" parent="1">
          <mxGeometry x="250" y="980" width="120" height="60" as="geometry" />
        </mxCell>
        <mxCell id="wBb50mCMs4URznQqPQpe-37" value="" style="edgeStyle=orthogonalEdgeStyle;rounded=0;orthogonalLoop=1;jettySize=auto;html=1;fontSize=15;" edge="1" parent="1" source="wBb50mCMs4URznQqPQpe-34" target="wBb50mCMs4URznQqPQpe-36">
          <mxGeometry relative="1" as="geometry" />
        </mxCell>
        <mxCell id="wBb50mCMs4URznQqPQpe-34" value="命令传播" style="whiteSpace=wrap;html=1;fontSize=15;" vertex="1" parent="1">
          <mxGeometry x="450" y="980" width="120" height="60" as="geometry" />
        </mxCell>
        <mxCell id="wBb50mCMs4URznQqPQpe-39" value="" style="edgeStyle=orthogonalEdgeStyle;rounded=0;orthogonalLoop=1;jettySize=auto;html=1;fontSize=15;" edge="1" parent="1" source="wBb50mCMs4URznQqPQpe-36" target="wBb50mCMs4URznQqPQpe-38">
          <mxGeometry relative="1" as="geometry" />
        </mxCell>
        <mxCell id="wBb50mCMs4URznQqPQpe-46" value="" style="edgeStyle=none;rounded=0;orthogonalLoop=1;jettySize=auto;html=1;fontSize=15;" edge="1" parent="1" source="wBb50mCMs4URznQqPQpe-36" target="wBb50mCMs4URznQqPQpe-45">
          <mxGeometry relative="1" as="geometry" />
        </mxCell>
        <mxCell id="wBb50mCMs4URznQqPQpe-36" value="缓存追加&lt;br&gt;AOF重新缓存" style="whiteSpace=wrap;html=1;fontSize=15;" vertex="1" parent="1">
          <mxGeometry x="650" y="980" width="120" height="60" as="geometry" />
        </mxCell>
        <mxCell id="wBb50mCMs4URznQqPQpe-41" value="" style="edgeStyle=orthogonalEdgeStyle;rounded=0;orthogonalLoop=1;jettySize=auto;html=1;fontSize=15;" edge="1" parent="1" source="wBb50mCMs4URznQqPQpe-38" target="wBb50mCMs4URznQqPQpe-40">
          <mxGeometry relative="1" as="geometry" />
        </mxCell>
        <mxCell id="wBb50mCMs4URznQqPQpe-50" value="" style="edgeStyle=orthogonalEdgeStyle;rounded=0;orthogonalLoop=1;jettySize=auto;html=1;fontSize=15;" edge="1" parent="1" source="wBb50mCMs4URznQqPQpe-38" target="wBb50mCMs4URznQqPQpe-49">
          <mxGeometry relative="1" as="geometry" />
        </mxCell>
        <mxCell id="wBb50mCMs4URznQqPQpe-38" value="文件写入" style="whiteSpace=wrap;html=1;fontSize=15;" vertex="1" parent="1">
          <mxGeometry x="850" y="980" width="120" height="60" as="geometry" />
        </mxCell>
        <mxCell id="wBb50mCMs4URznQqPQpe-40" value="保持AOF文件&lt;br&gt;" style="whiteSpace=wrap;html=1;fontSize=15;" vertex="1" parent="1">
          <mxGeometry x="1050" y="980" width="120" height="60" as="geometry" />
        </mxCell>
        <mxCell id="wBb50mCMs4URznQqPQpe-44" style="rounded=0;orthogonalLoop=1;jettySize=auto;html=1;entryX=0.25;entryY=1;entryDx=0;entryDy=0;fontSize=15;" edge="1" parent="1" source="wBb50mCMs4URznQqPQpe-42" target="wBb50mCMs4URznQqPQpe-36">
          <mxGeometry relative="1" as="geometry" />
        </mxCell>
        <mxCell id="wBb50mCMs4URznQqPQpe-42" value="子进程" style="whiteSpace=wrap;html=1;fontSize=15;" vertex="1" parent="1">
          <mxGeometry x="250" y="1120" width="120" height="60" as="geometry" />
        </mxCell>
        <mxCell id="wBb50mCMs4URznQqPQpe-47" style="edgeStyle=orthogonalEdgeStyle;rounded=0;orthogonalLoop=1;jettySize=auto;html=1;entryX=0.5;entryY=1;entryDx=0;entryDy=0;fontSize=15;" edge="1" parent="1" source="wBb50mCMs4URznQqPQpe-45" target="wBb50mCMs4URznQqPQpe-40">
          <mxGeometry relative="1" as="geometry" />
        </mxCell>
        <mxCell id="wBb50mCMs4URznQqPQpe-48" value="完成后代替现有AOF" style="edgeLabel;html=1;align=center;verticalAlign=middle;resizable=0;points=[];fontSize=15;" vertex="1" connectable="0" parent="wBb50mCMs4URznQqPQpe-47">
          <mxGeometry x="-0.0252" relative="1" as="geometry">
            <mxPoint as="offset" />
          </mxGeometry>
        </mxCell>
        <mxCell id="wBb50mCMs4URznQqPQpe-45" value="临时AOF" style="whiteSpace=wrap;html=1;fontSize=15;" vertex="1" parent="1">
          <mxGeometry x="650" y="1120" width="120" height="60" as="geometry" />
        </mxCell>
        <mxCell id="wBb50mCMs4URznQqPQpe-49" value="子进程" style="whiteSpace=wrap;html=1;fontSize=15;" vertex="1" parent="1">
          <mxGeometry x="850" y="1070" width="120" height="60" as="geometry" />
        </mxCell>
      </root>
    </mxGraphModel>
  </diagram>
</mxfile>
